<svg width="149" height="102" viewBox="0 0 149 102" fill="none" xmlns="http://www.w3.org/2000/svg">
<g clip-path="url(#clip0_356_4526)">
<path d="M61.7784 28.668C62.3149 28.7791 62.6977 28.7213 62.9348 28.4987C63.1397 28.3085 63.2193 28.014 63.1696 27.6191C62.8959 25.4311 61.0223 23.4058 58.2773 22.331C55.3546 21.1842 50.9761 21.0221 47.439 23.9934C41.47 29.0131 38.7487 39.3507 36.7497 47.5734C35.7999 51.479 30.9058 71.0841 25.6815 69.9897C21.7239 69.1609 26.5419 48.5524 26.7916 47.33C28.4801 39.0681 30.0734 31.266 23.6494 28.3295C22.5431 27.8254 21.0699 27.3307 18.5107 27.5089C12.3161 27.9417 7.72981 32.9243 7.22787 33.4904C4.40098 36.6769 1.71074 43.2129 5.88428 48.1649C6.89629 49.3667 9.16546 50.3948 11.5467 50.0358C13.6741 49.7139 15.1867 48.8097 16.1649 47.2663C17.4198 45.2866 17.1026 43.3326 16.9065 42.5875C16.6695 41.6853 16.0373 40.7442 15.207 40.7632C14.7112 40.7851 14.2008 41.2303 14.2317 42.0123C14.2495 42.496 14.0314 43.5207 13.3605 44.2003C12.8665 44.7019 12.2143 44.9581 11.416 44.9327C10.6137 44.9153 9.26038 44.0977 9.05945 41.9698C8.77907 39.024 10.3913 35.4829 13.1641 32.9496C13.9035 32.2738 16.5565 30.1119 19.5701 30.7383C20.1591 30.8612 22.113 31.6526 21.1824 35.288C20.5381 37.8219 19.7492 40.4853 18.9278 43.048C17.9866 45.978 17.0176 49.0089 16.4111 51.9579C14.7146 60.24 15.1928 64.4309 15.7949 67.1539C16.4831 70.2677 18.3345 74.0546 23.2222 74.5496C26.2144 74.8495 29.3528 73.1212 30.8759 71.7695C37.4226 65.9497 40.4028 57.0342 43.2752 48.4053C44.867 43.6267 46.367 39.1145 48.4293 35.1526C52.4458 27.4429 59.6605 28.2441 61.7784 28.668Z" fill="#746052"/>
<path d="M138.884 37.9255C138.522 36.7859 137.709 36.1397 136.705 36.2117C136.194 36.2457 135.767 36.5052 135.515 36.9375C135.17 37.5232 135.177 38.3577 135.534 39.1183C135.729 39.5369 135.956 39.778 136.122 39.9507C136.195 40.0271 136.793 40.541 136.257 41.6233C135.712 42.7217 134.156 43.88 132.278 43.9833C131.472 44.0305 130.846 43.815 130.417 43.3489C129.527 42.3845 129.561 40.5098 129.75 39.1063C129.875 38.1665 130.255 36.0367 130.69 33.5721C131.188 30.7726 131.749 27.598 132.037 25.6298C132.296 23.8269 132.001 22.425 131.167 21.4604C130.297 20.4597 128.856 19.9527 126.885 19.9596C123.487 19.9715 122.868 20.53 122.696 20.9498C122.564 21.2768 122.67 21.6594 123.083 22.0047C124.332 23.0525 123.987 24.6259 123.987 24.6259C122.753 23.4248 120.5 22.4894 117.435 23.1048C106.932 25.2135 104.592 39.5166 104.497 40.1256C103.685 45.2885 105.071 48.5087 105.128 48.6455C104.408 50.3291 101.442 51.7464 100.033 50.0501C99.0411 48.8563 99.2901 46.2834 99.5353 43.7872L103.393 20.6544C103.915 17.8145 104.786 13.0627 103.714 10.9097C102.378 8.25369 97.5727 8.15759 95.8093 8.82891C95.298 9.02419 95.0408 9.23068 94.9692 9.50506C94.8737 9.86821 95.1489 10.1898 95.4687 10.5676C95.7683 10.9253 96.1447 11.3674 96.2959 11.9394C96.6757 13.349 96.4514 16.0749 95.5144 21.347C94.8384 25.159 91.8771 41.8144 91.5737 43.8271C90.8251 48.8043 91.157 51.488 91.1775 51.5847C90.2813 53.551 87.4312 54.6978 86.0507 53.0377C85.0589 51.8439 85.3079 49.271 85.5532 46.7789L88.8415 26.7803C89.3637 23.9405 90.2339 19.1846 89.1622 17.0316C87.8347 14.3675 83.029 14.2714 81.2657 14.9427C80.7544 15.138 80.4971 15.3445 80.4255 15.6189C80.334 15.982 80.6053 16.3036 80.9251 16.6814C81.2246 17.0391 81.6011 17.4812 81.7522 18.0532C82.1321 19.4628 81.9078 22.1887 80.9708 27.4649C80.3303 31.0711 77.8867 44.7456 77.5996 46.8147C77.2536 49.3032 76.9419 52.4084 77.1992 54.5279C75.1812 57.2964 72.6923 56.8415 72.0973 56.1703C71.4053 55.3947 71.0975 53.8357 71.3725 51.7828C71.4982 50.8431 73.3762 40.2786 73.6596 38.3063C73.9194 36.5034 73.6242 35.1016 72.7904 34.137C71.9202 33.1362 70.4793 32.6333 68.508 32.6402C65.1097 32.6521 64.4908 33.2105 64.323 33.6304C64.1911 33.9574 64.2812 34.3602 64.7096 34.6852C65.902 35.5921 65.6137 37.3064 65.6137 37.3064C64.38 36.1054 62.1273 35.1699 59.0616 35.7853C48.5594 37.8941 46.2188 52.1971 46.1242 52.8062C45.5209 56.6824 45.9016 61.7927 48.7732 64.5038C50.0958 65.7529 51.7989 66.2871 53.8551 66.3686C58.7901 66.5651 61.7322 62.8984 63.4842 58.9538C64.0538 60.4514 65.9811 64.0325 71.105 62.902C74.678 62.1155 77.0958 59.5351 78.4356 57.6478C79.1487 58.6733 80.682 60.2402 83.3346 60.247C87.8819 60.2513 91.314 56.0468 92.3369 54.6041C93.2612 56.0723 94.9021 57.2638 97.2563 57.2717C101.59 57.2929 105.088 53.4711 106.564 51.2447C107.596 52.5392 109.313 53.6781 112.152 53.7045C117.489 53.7544 120.097 50.226 121.849 46.2813C122.419 47.7789 124.35 51.356 129.47 50.2295C134.284 49.1727 137.569 44.6139 138.507 41.9863C138.927 40.7956 139.231 39.0127 138.884 37.9255ZM64.0676 49.3895C62.6291 56.5098 59.5218 60.2173 57.2416 60.6485C56.0773 60.8663 55.1736 60.6598 54.5465 60.0291C53.2601 58.7314 53.0477 55.6442 53.9429 51.0979C54.5331 48.0885 56.8834 40.0217 60.6163 38.8638C60.9022 38.7741 61.2245 38.7206 61.5551 38.7195C62.2243 38.7171 62.9345 38.9323 63.4688 39.5311C64.262 40.4273 64.743 41.9535 64.7489 43.6184C64.7451 44.848 64.3647 47.9131 64.0676 49.3895ZM122.428 36.7171C120.99 43.8373 117.883 47.5448 115.602 47.9761C114.438 48.1978 113.534 47.9873 112.907 47.3566C111.621 46.059 111.409 42.9718 112.3 38.4254C112.89 35.416 115.24 27.3493 118.973 26.1914C119.259 26.1017 119.581 26.0482 119.912 26.047C120.581 26.0447 121.291 26.2599 121.826 26.8587C122.619 27.7549 123.1 29.2811 123.106 30.946C123.106 32.1755 122.726 35.2406 122.428 36.7171Z" fill="#746052"/>
<path d="M144.451 77.5959C144.451 76.4678 144.758 75.683 145.371 75.2416C145.984 74.7756 146.732 74.5426 147.615 74.5426C148.473 74.5426 149.209 74.7756 149.822 75.2416C150.435 75.683 150.742 76.4678 150.742 77.5959C150.742 78.6749 150.435 79.4597 149.822 79.9502C149.209 80.4161 148.473 80.6491 147.615 80.6491C146.732 80.6491 145.984 80.4161 145.371 79.9502C144.758 79.4597 144.451 78.6749 144.451 77.5959Z" fill="#746052"/>
<g clip-path="url(#clip1_356_4526)">
<g clip-path="url(#clip2_356_4526)">
<path d="M135.105 69.1482C134.944 68.6424 134.583 68.3555 134.138 68.3875C133.911 68.4026 133.721 68.5178 133.609 68.7097C133.456 68.9696 133.459 69.34 133.618 69.6777C133.705 69.8635 133.805 69.9705 133.879 70.0472C133.911 70.081 134.177 70.3091 133.939 70.7895C133.697 71.2771 133.006 71.7912 132.173 71.8371C131.815 71.858 131.537 71.7624 131.347 71.5555C130.952 71.1274 130.967 70.2953 131.05 69.6723C131.106 69.2552 131.275 68.3098 131.468 67.2159C131.689 65.9733 131.938 64.5642 132.066 63.6906C132.181 62.8903 132.05 62.2681 131.68 61.8399C131.293 61.3957 130.654 61.1707 129.779 61.1738C128.271 61.179 127.996 61.4269 127.92 61.6133C127.861 61.7584 127.908 61.9282 128.091 62.0815C128.646 62.5466 128.492 63.245 128.492 63.245C127.945 62.7119 126.945 62.2966 125.584 62.5698C120.923 63.5058 119.884 69.8544 119.842 70.1248C119.481 72.4164 120.096 73.8457 120.122 73.9065C119.802 74.6538 118.485 75.2828 117.86 74.5299C117.42 74 117.53 72.858 117.639 71.75L119.352 61.4821C119.583 60.2216 119.97 58.1124 119.494 57.1568C118.901 55.9779 116.768 55.9352 115.985 56.2332C115.759 56.3199 115.644 56.4116 115.613 56.5333C115.57 56.6945 115.692 56.8372 115.834 57.005C115.967 57.1637 116.134 57.36 116.201 57.6138C116.37 58.2395 116.27 59.4495 115.855 61.7896C115.554 63.4816 114.24 70.8744 114.105 71.7677C113.773 73.977 113.92 75.1682 113.93 75.2111C113.532 76.0839 112.267 76.5929 111.654 75.856C111.214 75.3261 111.324 74.1841 111.433 73.0779L112.893 64.2012C113.124 62.9407 113.511 60.8297 113.035 59.8741C112.446 58.6916 110.313 58.649 109.53 58.9469C109.303 59.0336 109.189 59.1253 109.157 59.2471C109.117 59.4082 109.237 59.551 109.379 59.7187C109.512 59.8775 109.679 60.0737 109.746 60.3276C109.915 60.9532 109.815 62.1632 109.399 64.5051C109.115 66.1058 108.03 72.1754 107.903 73.0938C107.749 74.1984 107.611 75.5767 107.725 76.5175C106.829 77.7463 105.725 77.5444 105.461 77.2465C105.153 76.9022 105.017 76.2102 105.139 75.299C105.195 74.8819 106.028 70.1927 106.154 69.3173C106.269 68.517 106.138 67.8948 105.768 67.4666C105.382 67.0224 104.742 66.7992 103.867 66.8023C102.359 66.8075 102.084 67.0554 102.01 67.2418C101.951 67.3869 101.991 67.5657 102.181 67.71C102.711 68.1125 102.583 68.8734 102.583 68.8734C102.035 68.3403 101.035 67.9251 99.6744 68.1983C95.0128 69.1343 93.9739 75.4829 93.9319 75.7533C93.6641 77.4738 93.8331 79.7421 95.1077 80.9454C95.6948 81.4999 96.4507 81.737 97.3634 81.7732C99.5539 81.8604 100.86 80.2329 101.637 78.482C101.89 79.1467 102.746 80.7362 105.02 80.2344C106.606 79.8854 107.679 78.74 108.274 77.9023C108.59 78.3575 109.271 79.0529 110.448 79.056C112.467 79.0579 113.99 77.1917 114.444 76.5513C114.854 77.203 115.583 77.7319 116.628 77.7354C118.551 77.7448 120.104 76.0484 120.759 75.0602C121.217 75.6348 121.98 76.1403 123.239 76.152C125.608 76.1741 126.766 74.608 127.544 72.8571C127.796 73.5218 128.654 75.1096 130.926 74.6096C133.063 74.1404 134.521 72.117 134.938 70.9507C135.124 70.4221 135.259 69.6308 135.105 69.1482ZM101.896 74.2367C101.258 77.3971 99.8787 79.0428 98.8666 79.2342C98.3498 79.3308 97.9486 79.2392 97.6703 78.9592C97.0993 78.3833 97.005 77.013 97.4024 74.995C97.6643 73.6592 98.7076 70.0787 100.364 69.5647C100.491 69.5249 100.634 69.5011 100.781 69.5006C101.078 69.4996 101.393 69.5951 101.631 69.8609C101.983 70.2587 102.196 70.9361 102.199 71.6751C102.197 72.2209 102.028 73.5814 101.896 74.2367ZM127.801 68.6118C127.162 71.7723 125.783 73.4179 124.771 73.6093C124.254 73.7078 123.853 73.6143 123.575 73.3344C123.004 72.7584 122.909 71.3881 123.305 69.3701C123.567 68.0343 124.61 64.4538 126.267 63.9398C126.394 63.9 126.537 63.8763 126.684 63.8758C126.981 63.8747 127.296 63.9702 127.533 64.236C127.885 64.6338 128.099 65.3112 128.101 66.0502C128.102 66.596 127.933 67.9565 127.801 68.6118Z" fill="#746052"/>
</g>
</g>
<g clip-path="url(#clip3_356_4526)">
<g clip-path="url(#clip4_356_4526)">
<path d="M151.748 65.261C151.576 64.8146 151.236 64.576 150.837 64.6286C150.633 64.6544 150.469 64.7681 150.379 64.9467C150.255 65.1887 150.278 65.5217 150.439 65.8169C150.526 65.9794 150.623 66.0703 150.693 66.1353C150.724 66.1641 150.975 66.355 150.787 66.7999C150.595 67.2514 150.002 67.7509 149.254 67.8368C148.934 67.8748 148.679 67.8037 148.496 67.6278C148.118 67.2639 148.087 66.5146 148.129 65.9498C148.157 65.5716 148.257 64.7122 148.372 63.7178C148.505 62.5883 148.653 61.3074 148.721 60.5147C148.782 59.7887 148.631 59.2361 148.275 58.8708C147.904 58.4919 147.316 58.3238 146.529 58.3734C145.173 58.459 144.939 58.6967 144.88 58.8684C144.836 59.0021 144.887 59.1524 145.06 59.2804C145.584 59.669 145.483 60.3054 145.483 60.3054C144.962 59.8553 144.04 59.5354 142.831 59.854C138.688 60.9458 139.866 66.905 139.843 67.1504C139.641 69.231 138.98 71.0033 139.006 71.0566C138.759 71.7459 137.127 71.6699 136.524 71.0262C136.1 70.5731 136.138 69.54 136.177 68.5375L137.167 59.2097C137.308 58.0635 137.542 56.1455 137.063 55.3114C136.466 54.2828 134.545 54.3587 133.857 54.6687C133.658 54.7589 133.56 54.8474 133.538 54.9587C133.509 55.1059 133.626 55.2278 133.763 55.371C133.891 55.5067 134.052 55.6743 134.126 55.899C134.311 56.4528 134.286 57.5465 134.037 59.6737C133.858 61.2118 133.072 67.9321 132.999 68.7429C132.818 70.7479 133.015 71.8114 133.025 71.8496C132.714 72.656 131.604 73.1816 131.013 72.5517C130.589 72.0986 130.627 71.0655 130.665 70.0646L131.502 62.0018C131.643 60.8555 131.878 58.936 131.399 58.1019C130.805 57.0698 128.884 57.1457 128.196 57.4557C127.997 57.5459 127.899 57.6344 127.877 57.7457C127.849 57.8928 127.965 58.0148 128.102 58.158C128.23 58.2937 128.39 58.4613 128.464 58.686C128.65 59.2398 128.625 60.3335 128.376 62.4623C128.206 63.9174 127.556 69.4352 127.491 70.2681C127.412 71.2699 127.361 72.5171 127.514 73.3572C126.775 74.5106 125.77 74.3882 125.516 74.1344C125.222 73.8412 125.062 73.226 125.123 72.3998C125.151 72.0217 125.649 67.759 125.715 66.9648C125.776 66.2388 125.625 65.6861 125.269 65.3209C124.898 64.942 124.31 64.7755 123.524 64.8251C122.167 64.9107 121.933 65.1484 121.876 65.32C121.831 65.4537 121.877 65.6124 122.056 65.732C122.553 66.0657 122.479 66.757 122.479 66.757C121.958 66.3069 121.036 65.987 119.827 66.3056C115.684 67.3974 115.09 73.1637 115.066 73.4091C114.918 74.9711 115.191 77.0024 116.402 78.0165C116.96 78.4837 117.653 78.6565 118.476 78.6401C120.451 78.6012 121.538 77.0672 122.144 75.4506C122.407 76.035 123.262 77.4189 125.28 76.8457C126.688 76.4466 127.592 75.3589 128.082 74.5735C128.391 74.9659 129.041 75.555 130.1 75.4947C131.916 75.3882 133.186 73.6279 133.56 73.0275C133.964 73.5917 134.263 73.5677 135.379 73.8468C137.053 74.1258 138.624 72.2718 139.16 71.3478C139.603 71.84 140.316 72.2539 141.45 72.1969C143.582 72.0898 144.539 70.619 145.145 69.0024C145.408 69.5868 146.264 70.969 148.282 70.3975C150.178 69.861 151.382 67.9627 151.694 66.8913C151.833 66.4059 151.912 65.6868 151.748 65.261ZM122.149 71.6181C121.744 74.4951 120.592 76.0493 119.692 76.2758C119.232 76.3904 118.866 76.3295 118.601 76.0925C118.056 75.6051 117.898 74.3775 118.147 72.541C118.311 71.3255 119.058 68.0488 120.521 67.4977C120.633 67.4551 120.76 67.4261 120.892 67.4177C121.159 67.4009 121.448 67.4699 121.676 67.6963C122.014 68.0352 122.242 68.6331 122.284 69.2977C122.312 69.7887 122.233 71.0215 122.149 71.6181ZM145.149 65.17C144.744 68.0471 143.591 69.6013 142.691 69.8277C142.232 69.9439 141.866 69.8814 141.601 69.6445C141.056 69.157 140.898 67.9295 141.145 66.0931C141.31 64.8775 142.056 61.6009 143.519 61.0498C143.631 61.0071 143.758 60.9781 143.89 60.9698C144.157 60.9529 144.446 61.022 144.674 61.2483C145.012 61.5873 145.24 62.1852 145.282 62.8497C145.311 63.3406 145.232 64.5735 145.149 65.17Z" fill="#746052"/>
</g>
</g>
<path d="M135.658 72.5216C138.448 73.0096 141.517 71.8624 142.075 66.561C142.075 62.0968 137.053 60.4228 135.1 64.887" stroke="#746052" stroke-width="2.71204"/>
</g>
<defs>
<clipPath id="clip0_356_4526">
<rect width="135.495" height="74.2693" fill="white" transform="translate(0 28.8643) rotate(-12.3)"/>
</clipPath>
<clipPath id="clip1_356_4526">
<rect x="113.895" y="52.0215" width="22.4073" height="25.7024" rx="2.96567" fill="white"/>
</clipPath>
<clipPath id="clip2_356_4526">
<rect width="59.4781" height="22.6372" fill="white" transform="translate(73.459 65.126) rotate(-12.3)"/>
</clipPath>
<clipPath id="clip3_356_4526">
<rect x="131.751" y="50.9932" width="5.64165" height="23.1604" rx="2.67236" transform="rotate(-3.41012 131.751 50.9932)" fill="white"/>
</clipPath>
<clipPath id="clip4_356_4526">
<rect width="53.5956" height="20.3983" fill="white" transform="translate(96.0811 64.9473) rotate(-15.7101)"/>
</clipPath>
</defs>
</svg>
